<svg xmlns="http://www.w3.org/2000/svg" viewBox="0 0 1500 200" width="1500" height="200">
	<style>
		tspan { white-space:pre }
	</style>
	<path id="HAPPYHOUSE " fill="#ffd700" d="M130.26 29.91L119.22 84.89L55.81 84.85L66.84 29.87L34.23 29.85L6.15 169.8L38.75 169.82L50.19 112.84L113.61 112.88L102.17 169.86L134.58 169.87L162.67 29.93ZM274.01 169.95L306.42 169.97L272.09 29.99L240.09 29.97L149.38 169.88L183.99 169.9L202.21 139.92L267.43 139.96ZM217.23 115.34L250.27 61.37L262.04 115.36ZM405.73 30.07L349.11 30.03L321.02 169.98L353.63 170L361.26 131.41L392.46 131.43C434.28 131.46 460.49 109.28 460.51 73.69C460.53 46.29 440.74 30.09 405.73 30.07ZM393.88 105.04L366.47 105.02L376.3 56.44L401.71 56.46C418.11 56.47 427.71 62.87 427.71 76.47C427.69 95.06 415.29 105.05 393.88 105.04ZM550.16 30.15L493.55 30.12L465.46 170.06L498.07 170.08L505.69 131.5L536.9 131.52C578.71 131.54 604.93 109.36 604.95 73.77C604.97 46.38 585.17 30.17 550.16 30.15ZM538.32 105.12L510.91 105.11L520.74 56.53L546.15 56.54C562.55 56.55 572.15 62.95 572.14 76.55C572.13 95.15 559.72 105.14 538.32 105.12ZM759.61 30.27L726.21 30.25L675.96 92.61L650.99 30.21L618.58 30.19L654.54 120.19L644.71 170.17L677.11 170.19L686.74 121.6ZM867.84 30.33L856.81 85.31L793.39 85.28L804.43 30.3L771.82 30.28L743.73 170.23L776.34 170.24L787.77 113.27L851.19 113.3L839.75 170.28L872.16 170.3L900.25 30.35ZM977.99 172.76C1029.6 172.79 1064.63 136.62 1064.66 88.83C1064.68 52.84 1039.09 28.03 996.48 28.01C944.86 27.98 909.83 64.15 909.81 111.94C909.78 147.93 935.38 172.74 977.99 172.76ZM980.8 145.17C956.2 145.15 942.6 130.95 942.61 110.16C942.63 80.56 962.05 55.58 993.66 55.6C1018.26 55.61 1031.86 69.82 1031.85 90.61C1031.83 120.2 1012.41 145.19 980.8 145.17ZM1140.23 172.85C1179.64 172.88 1203.46 151.7 1211.88 110.31L1227.73 30.54L1195.92 30.52L1180.27 108.29C1174.86 134.48 1163.45 145.27 1143.84 145.26C1126.44 145.25 1116.84 137.05 1116.85 120.05C1116.85 116.45 1117.26 112.66 1118.06 108.26L1133.71 30.49L1101.1 30.47L1085.45 108.84C1084.45 114.04 1083.84 119.03 1083.84 123.83C1083.82 154.03 1105.02 172.83 1140.23 172.85ZM1280.66 172.93C1319.67 172.96 1345.29 154.38 1345.31 125.38C1345.33 82.39 1275.71 94.35 1275.92 71.36C1275.93 61.36 1286.93 54.17 1305.74 54.18C1319.54 54.19 1333.14 57.79 1343.74 65L1355.96 40.21C1343.76 32.41 1326.36 28.2 1307.55 28.19C1268.74 28.16 1243.53 46.74 1243.51 75.54C1243.48 120.13 1312.91 108.17 1312.9 130.56C1312.89 140.76 1301.68 146.95 1283.88 146.94C1267.27 146.93 1250.47 141.72 1237.68 132.32L1224.46 157.31C1236.26 166.11 1257.86 172.92 1280.66 172.93ZM1487.98 56.68L1493.4 30.69L1387.57 30.63L1359.48 170.58L1467.91 170.64L1473.33 144.65L1396.91 144.61L1403.33 112.22L1468.54 112.26L1473.56 87.07L1408.54 87.03L1414.56 56.64Z" />
</svg>